# xmcd
#
# Track frame offsets:
#	150
#	15485
#	35852
#	55480
#	74412
#	90122
#	114852
#	131122
#	151032
#	161312
#
# Disc length: 2344
#
# Revision: 1
# Processed by: cddbd v1.5.1PL0 Copyright (c) Steve Scherf et al.
# Submitted via: CDex 1.50Beta6
# Normalized: r0:TDELIM( - )
#
DISCID=7409260a
DTITLE=Various Artist - Absolute Blues 1
DYEAR=1997
DGENRE=Blues
TTITLE0=Duke Robillard - Don't Leave Me Baby
TTITLE1=Jay McShann - Confessin' The Blues
TTITLE2=Jimmy Witherspoon - Lowdown Dirty Shame
TTITLE3=Lowell Fulson - Mean Old World
TTITLE4=Jim Byranes - Wrapped Up, Tied Up
TTITLE5=Rita Chiarelli - Tupelo
TTITLE6=David Clayton Thomas - Wish The World Would Come To Memphis
TTITLE7=Amos Garret - Walkin' Blues
TTITLE8=King Biscuit Boy - Step Back Baby
TTITLE9=Walter Shakey Horton - Sugar Mama
EXTD=YEAR: 1997
EXTT0=
EXTT1=
EXTT2=
EXTT3=
EXTT4=
EXTT5=
EXTT6=
EXTT7=
EXTT8=
EXTT9=
PLAYORDER=
